<?xml version="1.0" encoding="UTF-8" standalone="no"?>
<!DOCTYPE svg PUBLIC "-//W3C//DTD SVG 1.1//EN" "http://www.w3.org/Graphics/SVG/1.1/DTD/svg11.dtd">
<svg width="100%" height="100%" viewBox="0 0 360 436" version="1.1" xmlns="http://www.w3.org/2000/svg" xmlns:xlink="http://www.w3.org/1999/xlink" xml:space="preserve" xmlns:serif="http://www.serif.com/" style="fill-rule:evenodd;clip-rule:evenodd;stroke-linecap:round;stroke-linejoin:round;stroke-miterlimit:1.5;">
    <g transform="matrix(1,0,0,1,-954.153,-617.833)">
        <g transform="matrix(1,0,0,1,-8.93841,9.29814)">
            <path d="M1299.38,620.079C1305.85,620.079 1311.1,625.326 1311.1,631.8C1311.1,691.653 1311.1,962.662 1311.1,1021.62C1311.1,1027.88 1306.02,1032.96 1299.75,1032.96C1248.45,1032.96 1038.36,1032.96 986.333,1032.96C983.23,1032.96 980.255,1031.73 978.061,1029.53C975.867,1027.34 974.635,1024.37 974.635,1021.26C974.635,961.447 974.635,690.315 974.635,631.399C974.635,625.147 979.703,620.079 985.955,620.079C1037.21,620.079 1247.3,620.079 1299.38,620.079Z" style="fill:none;stroke:black;stroke-width:23.09px;"/>
        </g>
        <path d="M1007.81,653.329C1007.61,652.516 1007.54,651.658 1007.61,650.779C1007.97,646.379 1011.84,643.101 1016.24,643.465L1019.31,644.338L1021.36,645.848L1022.65,647.561L1023.58,650.065C1023.91,651.726 1023.34,667.78 1022,826.587C1021.91,837.024 1021.75,989.318 1020.91,998.496C1020.51,1002.89 1016.62,1006.14 1012.22,1005.74C1007.82,1005.34 1004.58,1001.45 1004.98,997.048C1005.81,987.939 1005.91,836.809 1006,826.452C1007.16,689.22 1007.87,659.703 1007.81,653.329ZM1012.9,658.978C1013.54,659.208 1014.2,659.351 1014.93,659.41C1014.22,659.352 1013.54,659.204 1012.9,658.978Z"/>
        <g transform="matrix(1,0,0,1,62.0278,0)">
            <path d="M1007.81,653.329C1007.61,652.516 1007.54,651.658 1007.61,650.779C1007.97,646.379 1011.84,643.101 1016.24,643.465L1019.31,644.338L1021.36,645.848L1022.65,647.561L1023.58,650.065C1023.91,651.726 1023.34,667.78 1022,826.587C1021.91,837.024 1021.75,989.318 1020.91,998.496C1020.51,1002.89 1016.62,1006.14 1012.22,1005.74C1007.82,1005.34 1004.58,1001.45 1004.98,997.048C1005.81,987.939 1005.91,836.809 1006,826.452C1007.16,689.22 1007.87,659.703 1007.81,653.329ZM1012.9,658.978C1013.54,659.208 1014.2,659.351 1014.93,659.41C1014.22,659.352 1013.54,659.204 1012.9,658.978Z"/>
        </g>
        <g transform="matrix(0.89124,0,0,1.00539,137.091,-15.7188)">
            <path d="M1259.23,661.059C1260.72,657.089 1265.48,654.791 1270.09,655.898L1272.47,656.763L1274.6,658.268L1276.08,660.14L1276.93,662.38L1277.03,664.758L1276.36,667.056L1273.76,670.556C1267.8,676.587 1233.01,704.731 1061.56,841.728C1057.88,844.668 1052.2,844.407 1048.88,841.145C1045.57,837.883 1045.86,832.848 1049.54,829.907C1211.78,700.263 1250.82,668.891 1259.23,661.059ZM1261.57,669.352C1262.53,670.214 1263.8,670.875 1265.4,671.26C1263.91,670.902 1262.61,670.233 1261.57,669.352Z"/>
        </g>
        <g transform="matrix(0.89124,0,0,-1.00539,137.091,1664.93)">
            <path d="M1259.23,661.059C1250.82,668.891 1211.78,700.263 1049.54,829.907C1045.86,832.848 1045.57,837.883 1048.88,841.145C1052.2,844.407 1057.88,844.668 1061.56,841.728C1233.01,704.731 1267.8,676.587 1273.76,670.556L1276.36,667.056L1277.03,664.758L1276.93,662.38L1276.08,660.14L1274.6,658.268L1272.47,656.763L1270.09,655.898C1265.48,654.791 1260.72,657.089 1259.23,661.059ZM1261.57,669.352C1262.61,670.233 1263.91,670.902 1265.4,671.26C1263.8,670.875 1262.53,670.214 1261.57,669.352Z"/>
        </g>
        <path d="M991.12,1005.64C986.78,1004.83 983.914,1000.64 984.725,996.303C985.535,991.963 989.717,989.098 994.057,989.908C1001.99,991.389 1012.4,988.771 1033.1,989.782C1037.51,989.997 1040.91,993.752 1040.7,998.162C1040.48,1002.57 1036.73,1005.98 1032.32,1005.76C1010.47,1004.7 999.488,1007.2 991.12,1005.64Z"/>
        <g transform="matrix(-1,-0.000308824,5.08544e-06,-0.0164671,2025.29,668.183)">
            <path d="M992.564,1483.59C988.149,1482.76 984.575,1264.41 984.589,996.278C984.602,728.15 988.198,511.134 992.613,511.958C1000.76,513.479 1011.45,510.918 1032.71,511.956C1037.13,512.172 1040.71,730.034 1040.71,998.163C1040.7,1266.29 1037.12,1483.8 1032.7,1483.59C1011.42,1482.55 1000.72,1485.11 992.564,1483.59Z"/>
        </g>
        <path d="M1160.61,831.083C1184.03,846.862 1191.93,860.944 1245.56,918.443C1249.76,922.945 1286.39,961.563 1299.12,973.636C1302.33,976.674 1302.46,981.742 1299.42,984.946C1296.38,988.149 1291.32,988.283 1288.11,985.245C1275.22,973.018 1238.11,933.915 1233.86,929.356C1169.18,860.013 1173.68,855.706 1131.56,832.303C1128.65,830.688 1127.04,827.443 1127.52,824.152C1128.01,820.861 1130.47,818.212 1133.72,817.497C1145.1,814.991 1152.41,814.987 1157.66,815.057C1159.98,815.088 1161.71,815.285 1163.22,814.883C1169.04,813.331 1170.48,812.999 1174.02,812.561C1177.52,804.563 1184.32,794.689 1192.17,785.853C1199.76,777.294 1208.3,769.763 1215.31,765.492C1214.7,758.681 1213.4,746.587 1210.8,733.663C1210.14,730.39 1211.58,727.052 1214.41,725.29C1217.25,723.527 1220.88,723.711 1223.53,725.75C1228.1,729.28 1253.46,748.845 1277.91,773.298C1283.23,778.619 1288.68,781.005 1301.49,794.568C1304.52,797.778 1304.38,802.845 1301.17,805.877C1297.96,808.909 1292.89,808.764 1289.86,805.554C1277.23,792.186 1271.84,789.856 1266.6,784.612C1253.43,771.441 1239.99,759.731 1229.86,751.326C1231.06,760.714 1231.55,767.713 1231.68,769.613C1231.92,773.143 1229.82,776.415 1226.51,777.657C1220.48,779.92 1211.88,787.752 1204.13,796.474C1196.34,805.256 1189.38,815.033 1187.61,821.924C1186.78,825.13 1184.07,827.498 1180.78,827.881C1173.95,828.676 1174.1,828.54 1167.34,830.342C1165.36,830.871 1163.2,831.065 1160.61,831.083Z"/>
        <path d="M1210.09,832.518L1210.44,831.542C1212.47,827.622 1217.3,826.088 1221.22,828.119C1223.62,829.361 1225.12,831.648 1225.46,834.134C1225.36,833.416 1225.14,832.693 1224.8,831.979L1225.54,835.012C1225.57,836.321 1225.29,837.658 1224.64,838.903C1225.25,837.73 1225.59,836.413 1225.55,835.054L1225.62,835.352L1225.45,837.246L1224.71,839.303C1224.64,839.44 1224.76,839.329 1223.69,840.928C1221.24,844.602 1216.27,845.596 1212.6,843.147C1209.08,840.8 1208.02,836.136 1210.09,832.518ZM1225.46,834.134C1225.51,834.442 1225.54,834.749 1225.55,835.054L1225.54,835.012C1225.53,834.717 1225.51,834.424 1225.46,834.134ZM1209.6,835.792C1209.63,836.808 1209.87,837.846 1210.36,838.866L1209.6,835.792Z"/>
        <path d="M1232.18,803.774C1232.09,804.05 1232,804.329 1231.93,804.611C1232,804.323 1232.09,804.042 1232.19,803.769L1232.23,803.532L1232.36,803.333C1233.87,799.813 1237.75,797.791 1241.59,798.725C1245.88,799.767 1248.52,804.097 1247.48,808.387L1247.31,808.834C1247.49,808.148 1247.58,807.437 1247.58,806.711C1247.58,807.466 1247.48,808.197 1247.28,808.889L1246.73,810.311C1246.75,810.271 1246.77,810.231 1246.79,810.191C1246.77,810.236 1246.75,810.28 1246.72,810.324L1246.69,810.417L1246.64,810.487C1245.29,813 1242.63,814.711 1239.58,814.711C1235.17,814.711 1231.58,811.126 1231.58,806.711L1232.18,803.774ZM1247.31,808.834C1247.18,809.299 1247.01,809.752 1246.79,810.191C1246.99,809.776 1247.16,809.341 1247.28,808.889L1247.31,808.834ZM1246.62,810.515L1245.73,811.794C1246.07,811.386 1246.37,810.958 1246.62,810.515ZM1232.37,803.322L1233.56,801.407C1233.06,801.997 1232.66,802.644 1232.37,803.322Z"/>
    </g>
</svg>
